<mxfile host="app.diagrams.net" modified="2023-08-29T07:25:45.657Z" agent="Mozilla/5.0 (Macintosh; Intel Mac OS X 10.15; rv:109.0) Gecko/20100101 Firefox/116.0" etag="f23skiZcrCIxk-aUyeEo" version="21.6.9" type="github">
  <diagram name="페이지-1" id="-PeFCKM8A_X5uczBClVy">
    <mxGraphModel dx="1173" dy="895" grid="1" gridSize="10" guides="1" tooltips="1" connect="1" arrows="1" fold="1" page="1" pageScale="1" pageWidth="1654" pageHeight="1169" math="0" shadow="0">
      <root>
        <mxCell id="0" />
        <mxCell id="1" parent="0" />
        <mxCell id="98emovbbX15mmAf7MSLc-1" value="" style="sketch=0;points=[[0,0,0],[0.25,0,0],[0.5,0,0],[0.75,0,0],[1,0,0],[0,1,0],[0.25,1,0],[0.5,1,0],[0.75,1,0],[1,1,0],[0,0.25,0],[0,0.5,0],[0,0.75,0],[1,0.25,0],[1,0.5,0],[1,0.75,0]];outlineConnect=0;fontColor=#232F3E;gradientColor=#4D72F3;gradientDirection=north;fillColor=#3334B9;strokeColor=#ffffff;dashed=0;verticalLabelPosition=bottom;verticalAlign=top;align=center;html=1;fontSize=12;fontStyle=0;aspect=fixed;shape=mxgraph.aws4.resourceIcon;resIcon=mxgraph.aws4.codecommit;" vertex="1" parent="1">
          <mxGeometry x="70" y="290" width="78" height="78" as="geometry" />
        </mxCell>
        <mxCell id="98emovbbX15mmAf7MSLc-3" value="" style="sketch=0;outlineConnect=0;fontColor=#232F3E;gradientColor=none;fillColor=#232F3D;strokeColor=none;dashed=0;verticalLabelPosition=bottom;verticalAlign=top;align=center;html=1;fontSize=12;fontStyle=0;aspect=fixed;pointerEvents=1;shape=mxgraph.aws4.documents2;" vertex="1" parent="1">
          <mxGeometry x="285" y="290" width="67" height="78" as="geometry" />
        </mxCell>
        <mxCell id="98emovbbX15mmAf7MSLc-4" value="" style="sketch=0;points=[[0,0,0],[0.25,0,0],[0.5,0,0],[0.75,0,0],[1,0,0],[0,1,0],[0.25,1,0],[0.5,1,0],[0.75,1,0],[1,1,0],[0,0.25,0],[0,0.5,0],[0,0.75,0],[1,0.25,0],[1,0.5,0],[1,0.75,0]];outlineConnect=0;fontColor=#232F3E;gradientColor=#F78E04;gradientDirection=north;fillColor=#D05C17;strokeColor=#ffffff;dashed=0;verticalLabelPosition=bottom;verticalAlign=top;align=center;html=1;fontSize=12;fontStyle=0;aspect=fixed;shape=mxgraph.aws4.resourceIcon;resIcon=mxgraph.aws4.ecr;" vertex="1" parent="1">
          <mxGeometry x="500" y="290" width="78" height="78" as="geometry" />
        </mxCell>
        <mxCell id="98emovbbX15mmAf7MSLc-5" value="" style="sketch=0;outlineConnect=0;fontColor=#232F3E;gradientColor=none;fillColor=#232F3D;strokeColor=none;dashed=0;verticalLabelPosition=bottom;verticalAlign=top;align=center;html=1;fontSize=12;fontStyle=0;aspect=fixed;pointerEvents=1;shape=mxgraph.aws4.source_code;" vertex="1" parent="1">
          <mxGeometry x="290" y="430" width="57" height="78" as="geometry" />
        </mxCell>
        <mxCell id="98emovbbX15mmAf7MSLc-31" style="edgeStyle=orthogonalEdgeStyle;rounded=0;orthogonalLoop=1;jettySize=auto;html=1;exitX=0.5;exitY=1;exitDx=0;exitDy=0;exitPerimeter=0;" edge="1" parent="1" source="98emovbbX15mmAf7MSLc-7" target="98emovbbX15mmAf7MSLc-8">
          <mxGeometry relative="1" as="geometry" />
        </mxCell>
        <mxCell id="98emovbbX15mmAf7MSLc-7" value="ECS CLUSTER" style="sketch=0;points=[[0,0,0],[0.25,0,0],[0.5,0,0],[0.75,0,0],[1,0,0],[0,1,0],[0.25,1,0],[0.5,1,0],[0.75,1,0],[1,1,0],[0,0.25,0],[0,0.5,0],[0,0.75,0],[1,0.25,0],[1,0.5,0],[1,0.75,0]];outlineConnect=0;fontColor=#232F3E;gradientColor=#F78E04;gradientDirection=north;fillColor=#D05C17;strokeColor=#ffffff;dashed=0;verticalLabelPosition=bottom;verticalAlign=top;align=center;html=1;fontSize=12;fontStyle=0;aspect=fixed;shape=mxgraph.aws4.resourceIcon;resIcon=mxgraph.aws4.ecs;" vertex="1" parent="1">
          <mxGeometry x="279.5" y="590" width="78" height="78" as="geometry" />
        </mxCell>
        <mxCell id="98emovbbX15mmAf7MSLc-37" style="edgeStyle=orthogonalEdgeStyle;rounded=0;orthogonalLoop=1;jettySize=auto;html=1;" edge="1" parent="1" source="98emovbbX15mmAf7MSLc-8" target="98emovbbX15mmAf7MSLc-12">
          <mxGeometry relative="1" as="geometry" />
        </mxCell>
        <mxCell id="98emovbbX15mmAf7MSLc-8" value="" style="sketch=0;points=[[0,0,0],[0.25,0,0],[0.5,0,0],[0.75,0,0],[1,0,0],[0,1,0],[0.25,1,0],[0.5,1,0],[0.75,1,0],[1,1,0],[0,0.25,0],[0,0.5,0],[0,0.75,0],[1,0.25,0],[1,0.5,0],[1,0.75,0]];outlineConnect=0;fontColor=#232F3E;gradientColor=#F78E04;gradientDirection=north;fillColor=#D05C17;strokeColor=#ffffff;dashed=0;verticalLabelPosition=bottom;verticalAlign=top;align=center;html=1;fontSize=12;fontStyle=0;aspect=fixed;shape=mxgraph.aws4.resourceIcon;resIcon=mxgraph.aws4.auto_scaling3;" vertex="1" parent="1">
          <mxGeometry x="279.5" y="730" width="78" height="78" as="geometry" />
        </mxCell>
        <mxCell id="98emovbbX15mmAf7MSLc-10" value="" style="sketch=0;outlineConnect=0;fontColor=#232F3E;gradientColor=none;fillColor=#232F3D;strokeColor=none;dashed=0;verticalLabelPosition=bottom;verticalAlign=top;align=center;html=1;fontSize=12;fontStyle=0;aspect=fixed;pointerEvents=1;shape=mxgraph.aws4.client;" vertex="1" parent="1">
          <mxGeometry x="279.5" y="130" width="78" height="76" as="geometry" />
        </mxCell>
        <mxCell id="98emovbbX15mmAf7MSLc-12" value="" style="sketch=0;outlineConnect=0;fontColor=#232F3E;gradientColor=none;fillColor=#4D27AA;strokeColor=none;dashed=0;verticalLabelPosition=bottom;verticalAlign=top;align=center;html=1;fontSize=12;fontStyle=0;aspect=fixed;pointerEvents=1;shape=mxgraph.aws4.application_load_balancer;" vertex="1" parent="1">
          <mxGeometry x="279.5" y="870" width="78" height="78" as="geometry" />
        </mxCell>
        <mxCell id="98emovbbX15mmAf7MSLc-14" value="" style="endArrow=classic;html=1;rounded=0;" edge="1" parent="1" source="98emovbbX15mmAf7MSLc-10" target="98emovbbX15mmAf7MSLc-3">
          <mxGeometry width="50" height="50" relative="1" as="geometry">
            <mxPoint x="580" y="540" as="sourcePoint" />
            <mxPoint x="630" y="490" as="targetPoint" />
          </mxGeometry>
        </mxCell>
        <mxCell id="98emovbbX15mmAf7MSLc-15" value="배포작업 등록" style="text;html=1;strokeColor=none;fillColor=none;align=center;verticalAlign=middle;whiteSpace=wrap;rounded=0;" vertex="1" parent="1">
          <mxGeometry x="320" y="230" width="90" height="30" as="geometry" />
        </mxCell>
        <mxCell id="98emovbbX15mmAf7MSLc-17" value="" style="endArrow=classic;html=1;rounded=0;exitX=1;exitY=0.5;exitDx=0;exitDy=0;exitPerimeter=0;" edge="1" parent="1" source="98emovbbX15mmAf7MSLc-18" target="98emovbbX15mmAf7MSLc-3">
          <mxGeometry width="50" height="50" relative="1" as="geometry">
            <mxPoint x="580" y="540" as="sourcePoint" />
            <mxPoint x="630" y="490" as="targetPoint" />
          </mxGeometry>
        </mxCell>
        <mxCell id="98emovbbX15mmAf7MSLc-19" value="" style="endArrow=classic;html=1;rounded=0;exitX=1;exitY=0.5;exitDx=0;exitDy=0;exitPerimeter=0;" edge="1" parent="1" source="98emovbbX15mmAf7MSLc-1" target="98emovbbX15mmAf7MSLc-18">
          <mxGeometry width="50" height="50" relative="1" as="geometry">
            <mxPoint x="148" y="329" as="sourcePoint" />
            <mxPoint x="285" y="329" as="targetPoint" />
          </mxGeometry>
        </mxCell>
        <mxCell id="98emovbbX15mmAf7MSLc-18" value="소스코드 다운로드" style="text;html=1;strokeColor=none;fillColor=none;align=center;verticalAlign=middle;whiteSpace=wrap;rounded=0;" vertex="1" parent="1">
          <mxGeometry x="180" y="314" width="90" height="30" as="geometry" />
        </mxCell>
        <mxCell id="98emovbbX15mmAf7MSLc-20" value="소스빌드" style="text;html=1;strokeColor=none;fillColor=none;align=center;verticalAlign=middle;whiteSpace=wrap;rounded=0;" vertex="1" parent="1">
          <mxGeometry x="320" y="368" width="90" height="30" as="geometry" />
        </mxCell>
        <mxCell id="98emovbbX15mmAf7MSLc-23" value="" style="endArrow=classic;html=1;rounded=0;entryX=0;entryY=0.5;entryDx=0;entryDy=0;entryPerimeter=0;" edge="1" parent="1" source="98emovbbX15mmAf7MSLc-3" target="98emovbbX15mmAf7MSLc-4">
          <mxGeometry width="50" height="50" relative="1" as="geometry">
            <mxPoint x="580" y="540" as="sourcePoint" />
            <mxPoint x="630" y="490" as="targetPoint" />
          </mxGeometry>
        </mxCell>
        <mxCell id="98emovbbX15mmAf7MSLc-24" value="Docker Image 저장" style="edgeLabel;html=1;align=center;verticalAlign=middle;resizable=0;points=[];" vertex="1" connectable="0" parent="98emovbbX15mmAf7MSLc-23">
          <mxGeometry x="-0.4852" y="-3" relative="1" as="geometry">
            <mxPoint x="30" y="-3" as="offset" />
          </mxGeometry>
        </mxCell>
        <mxCell id="98emovbbX15mmAf7MSLc-25" value="" style="endArrow=classic;html=1;rounded=0;" edge="1" parent="1" source="98emovbbX15mmAf7MSLc-3" target="98emovbbX15mmAf7MSLc-5">
          <mxGeometry width="50" height="50" relative="1" as="geometry">
            <mxPoint x="580" y="540" as="sourcePoint" />
            <mxPoint x="630" y="490" as="targetPoint" />
          </mxGeometry>
        </mxCell>
        <mxCell id="98emovbbX15mmAf7MSLc-26" value="" style="endArrow=classic;html=1;rounded=0;" edge="1" parent="1" source="98emovbbX15mmAf7MSLc-5" target="98emovbbX15mmAf7MSLc-7">
          <mxGeometry width="50" height="50" relative="1" as="geometry">
            <mxPoint x="580" y="540" as="sourcePoint" />
            <mxPoint x="630" y="490" as="targetPoint" />
          </mxGeometry>
        </mxCell>
        <mxCell id="98emovbbX15mmAf7MSLc-28" value="&lt;h1&gt;ECS 확인&lt;br&gt;&lt;/h1&gt;&lt;p&gt;배포 작업에서 지정된 클러스터와 ALB 정보로 target group을 추출해서 task definition을 입력한다. (task definition은 젠킨스 서버 안에 있다.&lt;br&gt;&lt;/p&gt;" style="text;html=1;strokeColor=none;fillColor=none;spacing=5;spacingTop=-20;whiteSpace=wrap;overflow=hidden;rounded=0;" vertex="1" parent="1">
          <mxGeometry x="400" y="430" width="460" height="100" as="geometry" />
        </mxCell>
        <mxCell id="98emovbbX15mmAf7MSLc-29" value="" style="endArrow=none;html=1;rounded=0;entryX=0;entryY=0.5;entryDx=0;entryDy=0;" edge="1" parent="1" target="98emovbbX15mmAf7MSLc-28">
          <mxGeometry width="50" height="50" relative="1" as="geometry">
            <mxPoint x="347" y="480" as="sourcePoint" />
            <mxPoint x="397" y="430" as="targetPoint" />
          </mxGeometry>
        </mxCell>
        <mxCell id="98emovbbX15mmAf7MSLc-32" value="&lt;h1&gt;Task definition 등록&lt;br&gt;&lt;/h1&gt;&lt;p&gt;Task definition을 등록하고 배포한다. &lt;br&gt;&lt;/p&gt;&lt;p&gt;이때 배포하는 컨테이이너의 개수에 &lt;br&gt;&lt;/p&gt;" style="text;html=1;strokeColor=none;fillColor=none;spacing=5;spacingTop=-20;whiteSpace=wrap;overflow=hidden;rounded=0;" vertex="1" parent="1">
          <mxGeometry x="420" y="719" width="460" height="100" as="geometry" />
        </mxCell>
        <mxCell id="98emovbbX15mmAf7MSLc-35" value="" style="endArrow=none;html=1;rounded=0;exitX=1;exitY=0.5;exitDx=0;exitDy=0;exitPerimeter=0;entryX=0;entryY=0.5;entryDx=0;entryDy=0;" edge="1" parent="1" source="98emovbbX15mmAf7MSLc-8" target="98emovbbX15mmAf7MSLc-32">
          <mxGeometry width="50" height="50" relative="1" as="geometry">
            <mxPoint x="430" y="690" as="sourcePoint" />
            <mxPoint x="480" y="640" as="targetPoint" />
          </mxGeometry>
        </mxCell>
        <mxCell id="98emovbbX15mmAf7MSLc-36" value="&lt;h1&gt;Health Check / 배포 완료&lt;br&gt;&lt;/h1&gt;&lt;p&gt;새로운 task definition이 등록되면 헬스체크를 거친 후 모든 컨테이너가 구동된게 확인되면, 기존의 task를 삭제하고 컨테이너의 개수를 원래의 숫자 (EC2의 대수와 동수)로 돌아간다.&lt;br&gt;&lt;/p&gt;" style="text;html=1;strokeColor=none;fillColor=none;spacing=5;spacingTop=-20;whiteSpace=wrap;overflow=hidden;rounded=0;" vertex="1" parent="1">
          <mxGeometry x="410" y="859" width="460" height="100" as="geometry" />
        </mxCell>
      </root>
    </mxGraphModel>
  </diagram>
</mxfile>
